<?xml version="1.0" encoding="utf-8"?>
<!-- Generator: Adobe Illustrator 25.2.0, SVG Export Plug-In . SVG Version: 6.00 Build 0)  -->
<svg version="1.1" id="Livello_1" xmlns="http://www.w3.org/2000/svg" xmlns:xlink="http://www.w3.org/1999/xlink" x="0px" y="0px"
	 viewBox="0 0 1280 152" style="enable-background:new 0 0 1280 152;" xml:space="preserve">
<g transform="translate(0.000000,640.000000) scale(0.100000,-0.100000)">
	<path d="M6335,6260c-132-3-229-9-228-14s28-19,60-32c85-31,135-58,161-87l24-25l-24-16c-26-17-135-35-210-36c-67,0-68-16,0-24
		c77-9,151-45,194-95c35-41,67-121,69-170c0-14,4-35,9-46c10-25,16-11,24,58c16,134,109,236,244,267c28,7,52,16,52,21s-49,9-109,9
		c-59,0-122,5-140,11l-32,11l20,22c19,20,115,70,224,115c27,12,46,25,42,31c-3,6-37,9-78,8C6597,6267,6462,6263,6335,6260z"/>
	<path d="M6851,5848c-70-12-116-50-156-129c-37-73-68-209-47-209c4,0,22,22,40,49c32,48,122,138,214,216c26,22,48,46,50,54
		C6956,5848,6906,5858,6851,5848z"/>
	<path d="M5835,5830c-5-9,8-28,41-58c123-112,204-195,231-236c49-78,56-52,22,75c-27,100-65,160-123,194
		C5953,5836,5848,5851,5835,5830z"/>
	<path d="M11795,5714c-272-83-1112-201-1925-269c-118-10-160-17-160-26c0-5,126-9,298-9c1125,0,2278-128,2597-287
		c57-29,115-80,115-102c0-10-8-7-27,11c-99,92-398,169-858,222c-575,66-1278,91-2340,83c-1179-9-2060-54-2467-128
		c-124-22-275-26-340-8c-65,17-133,55-174,96c-45,47-92,142-100,206c-8,58-20,60-29,5c-22-129-92-227-203-280c-61-29-78-32-182-36
		c-88-3-141,1-225,17c-397,74-1272,119-2475,128c-947,7-1576-11-2100-58c-568-51-951-133-1072-230c-41-32-53-26-15,8
		c179,165,1085,297,2282,333c176,5,404,10,508,10c196,0,248,13,99,24c-163,13-776,76-982,101c-461,57-866,127-1032,179l-78,24l23-30
		c78-102,88-127,66-167c-25-47-90-68-289-96c-416-58-625-131-687-241c-28-49-29-95-2-150c32-67,34-68,151-45
		c360,72,1051,141,1848,186c1589,89,2931,62,3775-76c284-47,392-34,489,59c44,43,92,136,102,199c8,52,19,48,28-8c8-53,47-134,86-181
		c75-91,223-117,445-79c372,63,721,96,1303,122c305,13,1681,7,2017-10c1158-57,1891-123,2358-212c60-11,110-19,112-17
		c18,17,65,126,65,149c0,99-97,177-292,237c-95,30-193,49-419,82c-199,29-241,41-279,83c-31,32-20,78,35,149c25,32,42,58,37,57
		C11878,5739,11839,5728,11795,5714z"/>
	<path d="M6918,5616c-68-18-112-57-147-129c-32-64-67-195-56-206c4-3,15,5,26,19c75,97,115,140,197,211c50,44,92,86,92,94
		C7030,5632,6991,5636,6918,5616z"/>
	<path d="M5763,5593c-4-11,5-26,28-46c123-105,195-177,231-228c23-32,45-56,50-51c9,9-16,120-43,188c-37,92-125,154-221,154
		C5781,5610,5767,5605,5763,5593z"/>
</g>
</svg>
